<svg xmlns="http://www.w3.org/2000/svg" width="960" height="300" viewBox="0 0 960 300">
  <g fill="none" stroke-linecap="round" stroke-linejoin="round">
    <path d="M410 255C522 190 574 212 654 150c58-45 96-34 160-99" stroke="#ede1c7" stroke-width="18" opacity="0.11"/>
    <path d="M490 270c74-52 128-55 198-104 57-40 101-54 176-122" stroke="#ede1c7" stroke-width="4" opacity="0.32"/>
    <path d="M550 282c90-58 141-38 216-89 49-34 86-66 150-137" stroke="#ede1c7" stroke-width="3" opacity="0.22"/>
    <path d="M734 184l22-56 21 56m-32-28h22m-43 28h64" stroke="#d9c9a9" stroke-width="5" opacity="0.38"/>
    <path d="M824 207l17-42 17 42m-26-20h18m-34 20h51" stroke="#d9c9a9" stroke-width="4" opacity="0.26"/>
    <circle cx="843" cy="63" r="28" stroke="#c85f4d" stroke-width="3" opacity="0.48"/>
  </g>
</svg>
